<?xml version="1.0" standalone="no"?>
<svg version="1.0" xmlns="http://www.w3.org/2000/svg"
     width="728.000000pt" height="1280.000000pt" viewBox="0 0 728.000000 1280.000000"
     preserveAspectRatio="xMidYMid meet" fill="currentColor">
    <metadata>
        Created by potrace 1.15, written by Peter Selinger 2001-2017
    </metadata>
    <g transform="translate(0.000000,1280.000000) scale(0.100000,-0.100000)"
        stroke="none">
        <path d="M2680 12794 c-1273 -21 -2269 -77 -2447 -138 -23 -8 -43 -23 -51 -39
-73 -150 -121 -1153 -164 -3482 -16 -869 -16 -4612 0 -5485 36 -1948 74 -2927
128 -3318 12 -82 13 -116 5 -126 -70 -84 524 -141 1944 -188 501 -17 2569 -16
3070 0 993 33 1551 69 1805 118 133 25 133 25 153 146 61 371 101 1330 139
3393 16 867 16 4602 0 5475 -38 2036 -85 3160 -142 3405 -5 22 -7 49 -4 61 7
26 -20 39 -128 58 -233 43 -776 77 -1713 107 -308 9 -2215 19 -2595 13z
m-2336 -229 c281 -45 950 -82 1896 -105 547 -14 2270 -14 2820 -1 1020 25
1730 67 1969 117 30 6 33 5 28 -12 -105 -343 -183 -4055 -157 -7461 20 -2634
73 -4371 145 -4788 8 -43 13 -81 11 -82 -2 -2 -14 1 -28 6 -84 32 -538 73
-1113 101 -1208 59 -3381 58 -4580 0 -494 -24 -942 -62 -1060 -90 -22 -5 -41
-8 -43 -6 -1 2 4 57 12 122 149 1175 190 7651 71 10900 -27 713 -59 1171 -92
1303 -5 20 -3 23 12 17 10 -3 59 -13 109 -21z"/>
        <path d="M3185 11823 c-555 -6 -1170 -29 -1525 -59 -321 -26 -483 -49 -565
-79 l-41 -15 -22 -97 c-133 -574 -162 -2706 -51 -3803 20 -204 46 -350 72
-412 13 -31 22 -38 69 -51 293 -82 1209 -130 2483 -130 1040 0 1774 29 2246
88 259 32 311 57 342 165 45 153 79 496 109 1090 16 326 16 1654 0 1980 -41
803 -87 1140 -161 1180 -73 39 -454 83 -956 110 -440 23 -1418 40 -2000 33z
m2905 -227 c0 -3 -6 -35 -14 -73 -28 -133 -57 -403 -76 -713 -42 -696 -42
-1942 1 -2610 22 -358 61 -692 89 -764 16 -43 13 -44 -47 -30 -120 28 -474 64
-838 84 -888 48 -2344 48 -3205 0 -418 -24 -738 -57 -842 -86 -15 -4 -16 -1
-7 28 15 55 48 312 64 513 81 1006 63 2738 -35 3445 -11 74 -22 150 -26 169
l-7 34 34 -7 c649 -121 2981 -154 4289 -61 218 16 506 48 570 64 44 11 50 12
50 7z"/>
        <path d="M5961 6924 c-163 -44 -298 -174 -345 -333 -23 -77 -21 -204 4 -285
42 -133 157 -257 287 -306 81 -31 219 -38 298 -15 93 27 155 63 221 129 190
190 189 491 -1 681 -33 33 -83 72 -111 87 -101 54 -244 71 -353 42z"/>
        <path d="M2940 5514 c-771 -15 -1513 -64 -1745 -114 -119 -25 -142 -49 -169
-178 -72 -331 -110 -1034 -110 -2022 0 -1071 48 -1847 130 -2093 23 -69 67
-89 279 -121 207 -33 629 -64 1170 -88 382 -16 1786 -16 2165 0 842 37 1265
79 1406 141 28 13 46 29 57 54 59 123 111 616 137 1287 13 343 13 1329 0 1670
-30 757 -94 1285 -161 1320 -98 53 -571 98 -1359 130 -244 10 -1504 20 -1800
14z m-1735 -234 c171 -39 666 -77 1330 -101 394 -15 1725 -15 2125 0 656 24
1148 62 1323 101 37 8 39 7 33 -16 -120 -475 -164 -2245 -86 -3394 21 -312 63
-644 90 -716 11 -27 5 -29 -50 -14 -152 42 -699 87 -1360 111 -404 16 -1653
16 -2055 1 -651 -25 -1127 -63 -1338 -108 -38 -8 -69 -14 -71 -14 -1 0 6 39
16 88 34 169 68 569 89 1072 16 351 16 1485 0 1825 -26 595 -61 969 -106 1148
-8 31 -3 32 60 17z"/>
    </g>
</svg>
